<svg xmlns="http://www.w3.org/2000/svg" xmlns:xlink="http://www.w3.org/1999/xlink" width="0" height="0" style="display:none;"><symbol viewBox="0 0 32 32" id="fi-student-hat-sm">
<path d="M16 27C10.304 27 6 24.5171 6 21.2329V16H9.2V21.2329C9.2 22.27 11.92 23.8571 16 23.8571C20.08 23.8571 22.8 22.2857 22.8 21.2329V16H26V21.2329C26 24.5171 21.696 27 16 27Z" fill="#384250"></path>
<path d="M16 22C15.264 22 14.528 21.8383 13.856 21.4988L0.88 14.951C0.336 14.6762 0 14.1103 0 13.5121C0 12.9139 0.336 12.3319 0.88 12.0732L13.856 5.50927C15.2 4.83024 16.8 4.83024 18.144 5.50927L31.12 12.0571C31.664 12.3319 32 12.8978 32 13.496V20.7713H28.8V16.1151L18.144 21.4988C17.472 21.8383 16.736 22 16 22ZM5.184 13.496L15.296 18.6048C15.744 18.8312 16.272 18.8312 16.736 18.6048L26.848 13.496L16.736 8.38707C16.288 8.16072 15.744 8.16072 15.312 8.38707L5.2 13.496H5.184Z" fill="#384250"></path>
</symbol><symbol viewBox="0 0 32 32" id="fi-user">
<path d="M14.5 15C10.36 15 7 11.64 7 7.5C7 3.36 10.36 0 14.5 0C18.64 0 22 3.36 22 7.5C22 11.64 18.64 15 14.5 15ZM14.5 3C12.025 3 10 5.025 10 7.5C10 9.975 12.025 12 14.5 12C16.975 12 19 9.975 19 7.5C19 5.025 16.975 3 14.5 3Z" fill="#384250"></path>
<path d="M14.5 32C10.6285 32 6.989 31.22 4.2485 29.81C0.551 27.905 0 25.67 0 24.5C0 22.385 0 20.555 1.8125 19.19C2.7695 18.47 4.176 17.945 6.119 17.585C8.2505 17.195 10.991 17 14.5 17C18.009 17 20.7495 17.195 22.881 17.585C24.8095 17.945 26.216 18.47 27.1875 19.19C29 20.555 29 22.37 29 24.5C29 25.655 28.449 27.89 24.7515 29.81C22.011 31.22 18.3715 32 14.5 32ZM14.5 20C11.2085 20 8.5695 20.18 6.6265 20.54C4.785 20.885 3.915 21.32 3.509 21.62C3.016 21.98 2.9 22.31 2.9 24.5C2.9 24.965 3.451 26.045 5.539 27.125C7.8445 28.325 11.107 29 14.5 29C17.893 29 21.141 28.31 23.461 27.125C25.549 26.045 26.1 24.965 26.1 24.5C26.1 22.325 25.9695 21.995 25.491 21.62C25.085 21.32 24.215 20.885 22.3735 20.54C20.445 20.18 17.7915 20 14.5 20Z" fill="#384250"></path>
</symbol></svg>