<svg width="32" height="32" viewBox="0 0 32 32" fill="none" xmlns="http://www.w3.org/2000/svg">
<path d="M16 27C10.304 27 6 24.5171 6 21.2329V16H9.2V21.2329C9.2 22.27 11.92 23.8571 16 23.8571C20.08 23.8571 22.8 22.2857 22.8 21.2329V16H26V21.2329C26 24.5171 21.696 27 16 27Z" fill="#384250"/>
<path d="M16 22C15.264 22 14.528 21.8383 13.856 21.4988L0.88 14.951C0.336 14.6762 0 14.1103 0 13.5121C0 12.9139 0.336 12.3319 0.88 12.0732L13.856 5.50927C15.2 4.83024 16.8 4.83024 18.144 5.50927L31.12 12.0571C31.664 12.3319 32 12.8978 32 13.496V20.7713H28.8V16.1151L18.144 21.4988C17.472 21.8383 16.736 22 16 22ZM5.184 13.496L15.296 18.6048C15.744 18.8312 16.272 18.8312 16.736 18.6048L26.848 13.496L16.736 8.38707C16.288 8.16072 15.744 8.16072 15.312 8.38707L5.2 13.496H5.184Z" fill="#384250"/>
</svg>
