<svg width="32" height="32" viewBox="0 0 32 32" fill="none" xmlns="http://www.w3.org/2000/svg">
<path d="M14.5 15C10.36 15 7 11.64 7 7.5C7 3.36 10.36 0 14.5 0C18.64 0 22 3.36 22 7.5C22 11.64 18.64 15 14.5 15ZM14.5 3C12.025 3 10 5.025 10 7.5C10 9.975 12.025 12 14.5 12C16.975 12 19 9.975 19 7.5C19 5.025 16.975 3 14.5 3Z" fill="#384250"/>
<path d="M14.5 32C10.6285 32 6.989 31.22 4.2485 29.81C0.551 27.905 0 25.67 0 24.5C0 22.385 0 20.555 1.8125 19.19C2.7695 18.47 4.176 17.945 6.119 17.585C8.2505 17.195 10.991 17 14.5 17C18.009 17 20.7495 17.195 22.881 17.585C24.8095 17.945 26.216 18.47 27.1875 19.19C29 20.555 29 22.37 29 24.5C29 25.655 28.449 27.89 24.7515 29.81C22.011 31.22 18.3715 32 14.5 32ZM14.5 20C11.2085 20 8.5695 20.18 6.6265 20.54C4.785 20.885 3.915 21.32 3.509 21.62C3.016 21.98 2.9 22.31 2.9 24.5C2.9 24.965 3.451 26.045 5.539 27.125C7.8445 28.325 11.107 29 14.5 29C17.893 29 21.141 28.31 23.461 27.125C25.549 26.045 26.1 24.965 26.1 24.5C26.1 22.325 25.9695 21.995 25.491 21.62C25.085 21.32 24.215 20.885 22.3735 20.54C20.445 20.18 17.7915 20 14.5 20Z" fill="#384250"/>
</svg>
